<svg xmlns="http://www.w3.org/2000/svg" xmlns:xlink="http://www.w3.org/1999/xlink" version="1.1" x="0px" y="0px" viewBox="0 0 95.4 125" style="enable-background:new 0 0 95.4 100;" xml:space="preserve"><path d="M22.7,81.7H11.4c-3.8,0-6.8-3.1-6.8-6.8V43c0-1.3-1-2.3-2.3-2.3S0,41.8,0,43v31.8C0,80.3,3.9,84.9,9.1,86v11.6  c0,1.3,1,2.3,2.3,2.3s2.3-1,2.3-2.3V86.2h9.1c1.3,0,2.3-1,2.3-2.3S24,81.7,22.7,81.7z M39.8,23.7c4.4,0,8,3.6,8,8s-3.6,8-8,8  s-8-3.6-8-8S35.4,23.7,39.8,23.7z M93.1,61.2H34.2c-1.3,0-2.3,1-2.3,2.3c0,1.3,1,2.3,2.3,2.3h27.2l-0.1,32c0,1.3,1,2.3,2.3,2.3l0,0  c1.3,0,2.3-1,2.3-2.3l0.1-32h27.2c1.3,0,2.3-1,2.3-2.3C95.4,62.2,94.4,61.2,93.1,61.2z M56.8,49.8h-0.7l-5.3-5.3  c-0.4-0.4-1.2-0.4-1.6,0c-0.4,0.4-0.4,1.2,0,1.6l3.7,3.7h-8.1L32.4,39.3c-1-0.9-1.4-1.3-2.3-1.8c-3.4-1.6-7.5-0.1-9.1,3.3L7.7,69.7  c-1.6,3.4-0.1,7.5,3.3,9.1c0.9,0.4,1.8,0.6,2.7,0.6l0,0H30l-9.3,13.5c-1.4,2.1-0.9,4.9,1.2,6.3s4.9,0.9,6.3-1.2l14.2-20.6l0,0  c0.3-0.5,0.6-1,0.7-1.6c0.1-0.3,0.1-0.6,0.1-0.9l0,0c0-0.1,0-0.2,0-0.3c0-0.2,0-0.4-0.1-0.6c0-0.2-0.1-0.3-0.1-0.4s-0.1-0.3-0.1-0.4  c-0.1-0.1-0.1-0.3-0.2-0.4c-0.1-0.1-0.1-0.2-0.2-0.4c-0.1-0.1-0.2-0.3-0.3-0.4s-0.2-0.2-0.3-0.3c-0.2-0.2-0.3-0.3-0.5-0.4  c-0.1,0-0.1-0.1-0.2-0.1l0,0c-0.5-0.3-1-0.6-1.6-0.7c-0.3-0.1-0.6-0.1-0.9-0.1l0,0H22.4l9.2-19.8l8.6,7.3c0.9,0.7,1.9,1.1,2.9,1.1  h13.6c2.5,0,4.5-2,4.5-4.5C61.4,51.9,59.3,49.8,56.8,49.8z M88.6,59.1H72.7c-1.3,0-2.3-1-2.3-2.3s1-2.3,2.3-2.3h15.9  c1.3,0,2.3,1,2.3,2.3S89.9,59.1,88.6,59.1z M90.9,52.3H77.3c-1.3,0-2.3-1-2.3-2.3s1-2.3,2.3-2.3h13.6c1.3,0,2.3,1,2.3,2.3  S92.2,52.3,90.9,52.3z M72.7,22.7c-6.3,0-11.4-5.1-11.4-11.4S66.5,0,72.7,0s11.4,5.1,11.4,11.4S79,22.7,72.7,22.7z M72.7,4.5  c-3.8,0-6.8,3.1-6.8,6.8s3.1,6.8,6.8,6.8s6.8-3.1,6.8-6.8S76.5,4.5,72.7,4.5z M72.7,12.5h-4.5c-0.6,0-1.1-0.5-1.1-1.1  s0.5-1.1,1.1-1.1h3.4V6.8c0-0.6,0.5-1.1,1.1-1.1s1.1,0.5,1.1,1.1v4.5C73.9,12,73.4,12.5,72.7,12.5z"/><text x="0" y="115" fill="#000000" font-size="5px" font-weight="bold" font-family="'Helvetica Neue', Helvetica, Arial-Unicode, Arial, Sans-serif">Created by Kathleen Black</text><text x="0" y="120" fill="#000000" font-size="5px" font-weight="bold" font-family="'Helvetica Neue', Helvetica, Arial-Unicode, Arial, Sans-serif">from the Noun Project</text></svg>